# xmcd
#
# Track frame offsets:
# 150
# 16477
# 29932
# 58484
# 75946
# 92805
# 109205
# 122942
# 143711
# 180033
# 198940
# 217805
# 236664
# 259001
# 271056
# 294103
# 320077
#
# Disc length: 4489 seconds
#
#
# Revision: 0
# Processed by: cddbd v1.5.1PL0 Copyright (c) Steve Scherf et al.
# Submitted via: FreeRIP 2.70 
#
DISCID=f0118711
DTITLE=Eric Clapton - Crossroads [CD4]
DYEAR=1900
DGENRE=Blues
TTITLE0=Hello Old Friend (Clapton)
TTITLE1=Sign Language (Clapton)
TTITLE2=Further Up the Road (Clapton)
TTITLE3=Lay Down Sally (Clapton)
TTITLE4=Wonderful Tonight (Clapton)
TTITLE5=Cocaine (Clapton)
TTITLE6=Promises (Clapton)
TTITLE7=If I Don't Be There By Morning (Clapton)
TTITLE8=Double Trouble (Clapton)
TTITLE9=I Can't Stand It (Clapton)
TTITLE10=The Shape You're In (Clapton)
TTITLE11=Heaven Is One Step Away (Clapton)
TTITLE12=She's Waiting (Clapton)
TTITLE13=Too Bad (Clapton)
TTITLE14=Miss You (Clapton)
TTITLE15=Wanna Make Love To You (Clapton)
TTITLE16=After Midnight (Clapton)
EXTD=
EXTT0=
EXTT1=
EXTT2=
EXTT3=
EXTT4=
EXTT5=
EXTT6=
EXTT7=
EXTT8=
EXTT9=
EXTT10=
EXTT11=
EXTT12=
EXTT13=
EXTT14=
EXTT15=
EXTT16=
PLAYORDER=
